<?xml version="1.0" encoding="UTF-8" standalone="no"?><!DOCTYPE svg PUBLIC "-//W3C//DTD SVG 1.1//EN" "http://www.w3.org/Graphics/SVG/1.1/DTD/svg11.dtd"><svg width="100%" height="100%" viewBox="0 0 284 284" version="1.1" xmlns="http://www.w3.org/2000/svg" xmlns:xlink="http://www.w3.org/1999/xlink" xml:space="preserve" xmlns:serif="http://www.serif.com/" style="fill-rule:evenodd;clip-rule:evenodd;stroke-linecap:round;stroke-linejoin:round;stroke-miterlimit:1.5;"><g><g><path d="M48.506,150.083l0.379,121.245c-0,0 0.515,3.799 3.987,3.177c3.472,-0.621 59.423,-15.29 59.423,-15.29c-0,-0 22.401,-6.364 22.839,-35c0.439,-28.636 0.093,-83.75 0.093,-83.75c-0,-0 -69.329,12.879 -86.721,9.618Z" style="stroke:#000;stroke-width:1px;"/><path d="M72.036,181.194c0.821,-0.66 2.023,-0.529 2.683,0.292l14.93,18.562c0.66,0.821 0.53,2.024 -0.291,2.684l-2.975,2.392c-0.821,0.661 -2.023,0.53 -2.683,-0.291l-14.93,-18.563c-0.66,-0.82 -0.53,-2.023 0.291,-2.683l2.975,-2.393Z" style="fill:#fff;"/><path d="M79.33,163.846c0.881,-0.708 2.171,-0.569 2.879,0.312l24.441,30.388c0.708,0.881 0.568,2.171 -0.313,2.879l-3.192,2.567c-0.88,0.709 -2.171,0.569 -2.879,-0.312l-24.44,-30.388c-0.709,-0.88 -0.569,-2.171 0.312,-2.879l3.192,-2.567Z" style="fill:#fff;"/></g><g><path d="M267.388,90.378c0,-0 -12.169,-85.426 -104.869,-85.833c-92.699,-0.407 -100.709,77.262 -101.1,80.634c-0.391,3.372 -4.212,13.111 -11.312,13.088c-7.1,-0.022 -32.842,11.642 -32.842,11.642c-0,-0 -21.796,20.224 9.291,28.625l37.787,-0.432c-0,0 47.798,-9.857 47.679,-9.857c-0.118,-0 35.283,0.374 35.283,0.374l30.909,52.506c0,0 43.639,25.186 67.024,-21.043c23.386,-46.229 21.045,-56.882 22.15,-69.704Z" style="stroke:#000;stroke-width:1px;"/><path d="M193.432,104.31c0.821,-0.66 2.024,-0.53 2.684,0.291l14.93,18.563c0.66,0.821 0.529,2.024 -0.292,2.684l-2.974,2.392c-0.821,0.661 -2.024,0.53 -2.684,-0.291l-14.93,-18.563c-0.66,-0.821 -0.529,-2.023 0.291,-2.683l2.975,-2.393Z" style="fill:#fff;"/><path d="M200.129,88.293c0.881,-0.708 2.171,-0.568 2.88,0.313l24.44,30.387c0.708,0.881 0.568,2.171 -0.312,2.88l-3.192,2.567c-0.881,0.708 -2.171,0.568 -2.88,-0.313l-24.44,-30.387c-0.708,-0.881 -0.568,-2.171 0.313,-2.88l3.191,-2.567Z" style="fill:#fff;"/></g></g></svg>