<?xml version="1.0" encoding="UTF-8" standalone="no"?><!DOCTYPE svg PUBLIC "-//W3C//DTD SVG 1.1//EN" "http://www.w3.org/Graphics/SVG/1.1/DTD/svg11.dtd"><svg width="30px" height="30px" version="1.1" xmlns="http://www.w3.org/2000/svg" xmlns:xlink="http://www.w3.org/1999/xlink" xml:space="preserve" xmlns:serif="http://www.serif.com/" style="fill-rule:evenodd;clip-rule:evenodd;stroke-linecap:round;stroke-linejoin:round;stroke-miterlimit:1.5;"><g transform="matrix(-0.075509,0,0,0.075509,46.3774,-34.924)"><g transform="matrix(1,0,0,1,-4.28763,3.8552)"><g transform="matrix(1,0,0,1,-30.2149,338.976)"><path d="M576.491,332.554L575.964,500.915C575.964,500.915 575.249,506.191 570.427,505.327C565.606,504.464 487.913,484.094 487.913,484.094C487.913,484.094 456.807,475.258 456.198,435.494C455.589,395.729 456.069,319.198 456.069,319.198C456.069,319.198 552.339,337.082 576.491,332.554Z" style="fill:rgb(212,179,179);stroke:black;stroke-width:13.24px;"/></g><g transform="matrix(0.401978,-0.499798,0.726236,0.584098,63.7566,448.065)"><path d="M115.582,555.445C115.582,553.875 113.73,552.601 111.45,552.601L59.876,552.601C57.595,552.601 55.744,553.875 55.744,555.445L55.744,561.132C55.744,562.702 57.595,563.976 59.876,563.976L111.45,563.976C113.73,563.976 115.582,562.702 115.582,561.132L115.582,555.445Z"/></g><g transform="matrix(0.626727,-0.779239,0.779239,0.626727,-1.78941,432.595)"><path d="M115.582,555.445C115.582,553.875 114.308,552.601 112.738,552.601L58.587,552.601C57.018,552.601 55.744,553.875 55.744,555.445L55.744,561.132C55.744,562.702 57.018,563.976 58.587,563.976L112.738,563.976C114.308,563.976 115.582,562.702 115.582,561.132L115.582,555.445Z"/></g></g><g><g transform="matrix(1,0,0,1,87.9821,323.202)"><path d="M150.064,269.275C150.064,269.275 166.963,150.652 295.686,150.087C424.409,149.522 435.532,257.374 436.074,262.056C436.617,266.738 441.924,280.262 451.782,280.23C461.641,280.199 497.387,296.396 497.387,296.396C497.387,296.396 527.653,324.48 484.486,336.146L432.014,335.546C432.014,335.546 365.641,321.858 365.806,321.858C365.971,321.858 316.812,322.378 316.812,322.378L273.892,395.288C273.892,395.288 213.295,430.262 180.822,366.068C148.348,301.874 151.598,287.08 150.064,269.275Z" style="fill:rgb(250,143,66);stroke:black;stroke-width:13.24px;"/></g><g transform="matrix(0.401978,-0.499798,0.726236,0.584098,-109.103,345.158)"><path d="M115.582,555.445C115.582,553.875 113.73,552.601 111.45,552.601L59.876,552.601C57.595,552.601 55.744,553.875 55.744,555.445L55.744,561.132C55.744,562.702 57.595,563.976 59.876,563.976L111.45,563.976C113.73,563.976 115.582,562.702 115.582,561.132L115.582,555.445Z"/></g><g transform="matrix(0.626727,-0.779239,0.779239,0.626727,-173.82,331.537)"><path d="M115.582,555.445C115.582,553.875 114.308,552.601 112.738,552.601L58.587,552.601C57.018,552.601 55.744,553.875 55.744,555.445L55.744,561.132C55.744,562.702 57.018,563.976 58.587,563.976L112.738,563.976C114.308,563.976 115.582,562.702 115.582,561.132L115.582,555.445Z"/></g></g></g></svg>