<?xml version="1.0" encoding="UTF-8" standalone="no"?><!DOCTYPE svg PUBLIC "-//W3C//DTD SVG 1.1//EN" "http://www.w3.org/Graphics/SVG/1.1/DTD/svg11.dtd"><svg width="284px" height="284px" version="1.1" xmlns="http://www.w3.org/2000/svg" xmlns:xlink="http://www.w3.org/1999/xlink" xml:space="preserve" xmlns:serif="http://www.serif.com/" style="fill-rule:evenodd;clip-rule:evenodd;stroke-linecap:round;stroke-linejoin:round;stroke-miterlimit:1.5;"><g><g><path d="M48.506,150.083L48.885,271.328C48.885,271.328 49.4,275.127 52.872,274.505C56.344,273.884 112.295,259.215 112.295,259.215C112.295,259.215 134.696,252.851 135.134,224.215C135.573,195.579 135.227,140.465 135.227,140.465C135.227,140.465 65.898,153.344 48.506,150.083Z" style="stroke:black;stroke-width:1px;"/><path d="M72.036,181.194C72.857,180.534 74.059,180.665 74.719,181.486L89.649,200.048C90.309,200.869 90.179,202.072 89.358,202.732L86.383,205.124C85.562,205.785 84.36,205.654 83.7,204.833L68.77,186.27C68.11,185.45 68.24,184.247 69.061,183.587L72.036,181.194Z" style="fill:white;"/><path d="M79.33,163.846C80.211,163.138 81.501,163.277 82.209,164.158L106.65,194.546C107.358,195.427 107.218,196.717 106.337,197.425L103.145,199.992C102.265,200.701 100.974,200.561 100.266,199.68L75.826,169.292C75.117,168.412 75.257,167.121 76.138,166.413L79.33,163.846Z" style="fill:white;"/></g><g><path d="M267.388,90.378C267.388,90.378 255.219,4.952 162.519,4.545C69.82,4.138 61.81,81.807 61.419,85.179C61.028,88.551 57.207,98.29 50.107,98.267C43.007,98.245 17.265,109.909 17.265,109.909C17.265,109.909 -4.531,130.133 26.556,138.534L64.343,138.102C64.343,138.102 112.141,128.245 112.022,128.245C111.904,128.245 147.305,128.619 147.305,128.619L178.214,181.125C178.214,181.125 221.853,206.311 245.238,160.082C268.624,113.853 266.283,103.2 267.388,90.378Z" style="stroke:black;stroke-width:1px;"/><path d="M193.432,104.31C194.253,103.65 195.456,103.78 196.116,104.601L211.046,123.164C211.706,123.985 211.575,125.188 210.754,125.848L207.78,128.24C206.959,128.901 205.756,128.77 205.096,127.949L190.166,109.386C189.506,108.565 189.637,107.363 190.457,106.703L193.432,104.31Z" style="fill:white;"/><path d="M200.129,88.293C201.01,87.585 202.3,87.725 203.009,88.606L227.449,118.993C228.157,119.874 228.017,121.164 227.137,121.873L223.945,124.44C223.064,125.148 221.774,125.008 221.065,124.127L196.625,93.74C195.917,92.859 196.057,91.569 196.938,90.86L200.129,88.293Z" style="fill:white;"/></g></g></svg>