<?xml version="1.0" encoding="UTF-8" standalone="no"?>
<!DOCTYPE svg PUBLIC "-//W3C//DTD SVG 1.1//EN" "http://www.w3.org/Graphics/SVG/1.1/DTD/svg11.dtd">
<svg width="32" height="32" viewBox="0 0 32 32" version="1.1" xmlns="http://www.w3.org/2000/svg" xmlns:xlink="http://www.w3.org/1999/xlink" xml:space="preserve" xmlns:serif="http://www.serif.com/" style="fill-rule:evenodd;clip-rule:evenodd;stroke-linejoin:round;stroke-miterlimit:2;">
    <g transform="matrix(0.0565232,0,0,0.0565232,2.01644,0.495219)">
        <g>
            <g>
                <g>
                    <path d="M446.869,254.18C439.89,246.055 433.158,238.321 426.556,230.482C424.147,227.631 422.116,227.175 418.549,229.206C404.603,237.162 390.424,244.714 376.244,252.266C373.275,253.842 372.012,255.678 371.973,259.167C371.804,272.839 371.413,286.498 370.749,300.144C370.658,301.98 368.926,304.662 367.285,305.352C337.845,317.722 307.142,325.43 275.515,329.545C249.252,332.956 222.95,333.855 196.595,330.665C172.468,327.735 149.174,321.967 127.989,309.636C90.762,287.969 75.059,254.623 76.478,212.514C78.158,163.204 97.077,120.417 127.038,82.019C139.538,65.99 154.017,51.954 170.306,39.792C171.426,38.946 172.637,38.23 174.291,37.735C123.718,103.047 109.369,177.409 118.002,257.592C118.483,257.644 118.965,257.696 119.447,257.748C119.447,254.063 119.317,250.378 119.486,246.706C119.668,242.787 120.15,238.881 120.463,234.962C123.718,194.519 131.14,154.975 146.439,117.214C160.306,83.021 179.89,52.839 210.124,30.73C238.653,9.87 270.853,0.092 306.14,0.001C338.327,-0.078 368.588,7.956 397.65,21.198C398.132,21.42 398.535,21.823 399.421,22.462C391.075,21.433 383.288,19.909 375.45,19.584C298.431,16.381 243.145,50.808 207.168,117.8C191.075,147.761 182.051,180.209 178.171,213.79C175.358,238.087 174.877,262.644 173.392,287.084C173.236,289.597 173.379,292.149 173.744,294.688C176.752,260.3 182.78,226.537 193.64,193.764C207.272,152.605 226.713,114.805 259.004,84.857C289.642,56.446 326.179,42.344 367.741,40.756C389.564,39.922 411.035,42.618 432.246,47.592C434.486,48.126 436.856,49.337 438.522,50.925C466.752,77.657 486.452,109.297 491.856,148.334C497.429,188.581 476.179,236.407 446.869,254.18" style="fill:rgb(255,103,0);fill-rule:nonzero;"/>
                </g>
            </g>
            <path d="M77.313,389.364C81.297,390.913 85.269,392.424 89.214,394.012C111.388,402.971 133.224,412.945 155.841,420.614C179.995,428.817 204.982,429.741 229.761,422.085C233.276,421.004 236.74,419.26 239.813,417.202C269.618,397.281 303.433,386.903 337.065,376.096C337.391,375.991 337.795,376.148 338.511,376.213L338.511,381.2C338.511,427.997 338.459,474.794 338.615,521.59C338.628,525.601 337.378,527.463 333.693,528.882C289.604,545.978 244.344,553.635 197.313,545.119C147.287,536.057 109.188,508.674 80.529,467.333C79.735,466.161 79.084,464.624 79.045,463.244C78.25,439.116 77.56,414.976 76.857,390.835C76.844,390.51 77.052,390.158 77.313,389.364" style="fill:rgb(226,151,100);fill-rule:nonzero;"/>
            <path d="M493.244,218.573C497.502,235.045 492.554,248.86 483.465,261.633C470.549,279.784 453.153,293.027 434.78,305.097C397.619,329.485 357.241,347.48 316.33,364.407C288.791,375.8 260.952,386.581 233.908,399.068C209.077,410.54 184.09,411.308 158.569,403.938C111.16,390.253 66.785,369.446 24.325,344.55C17.684,340.657 11.642,335.175 6.525,329.368C-2.238,319.446 -2.043,308.144 6.317,297.792C24.989,274.667 43.856,251.685 62.658,228.665C62.84,228.443 63.322,228.482 63.504,228.43C64.754,237.753 65.392,247.219 67.371,256.386C75.861,295.488 100.978,319.889 137.319,333.951C162.202,343.573 188.179,347.31 214.702,347.584C289.95,348.326 360.392,330.462 425.236,291.998C448.765,278.053 469.689,260.852 484.077,236.985C487.502,231.295 490.041,225.084 493.244,218.573" style="fill:rgb(255,103,0);fill-rule:nonzero;"/>
            <path d="M458.377,315.891C462.257,335.761 462.582,355.37 455.017,374.355C446.007,396.972 427.739,407.805 404.718,411.256C392.713,413.066 383.78,407.206 378.728,396.034C374.08,385.735 373.051,374.771 373.546,363.678C373.624,362.05 376.085,359.967 377.921,359.055C396.489,349.876 415.33,341.204 433.715,331.698C442.244,327.284 449.978,321.334 458.377,315.891" style="fill:rgb(255,103,0);fill-rule:nonzero;"/>
        </g>
    </g>
</svg>
